<svg width="221" height="36" viewBox="0 0 221 36" fill="none" xmlns="http://www.w3.org/2000/svg">
<path d="M4.553 10.157L7.237 17.076C7.347 17.3547 7.47167 17.5417 7.611 17.637C7.75033 17.725 7.87867 17.7727 7.996 17.78V18C7.84933 17.9853 7.66967 17.978 7.457 17.978C7.24433 17.9707 7.03167 17.967 6.819 17.967C6.533 17.967 6.26533 17.9707 6.016 17.978C5.76667 17.978 5.565 17.9853 5.411 18V17.78C5.785 17.7653 6.02333 17.703 6.126 17.593C6.22867 17.4757 6.20667 17.23 6.06 16.856L4.014 11.389L4.19 11.246L2.276 16.218C2.15867 16.5113 2.089 16.7607 2.067 16.966C2.045 17.164 2.06333 17.3217 2.122 17.439C2.188 17.5563 2.29433 17.6407 2.441 17.692C2.595 17.7433 2.78567 17.7727 3.013 17.78V18C2.80767 17.9853 2.59133 17.978 2.364 17.978C2.144 17.9707 1.93867 17.967 1.748 17.967C1.56467 17.967 1.407 17.9707 1.275 17.978C1.15033 17.978 1.033 17.9853 0.923 18V17.78C1.06967 17.7433 1.22 17.659 1.374 17.527C1.528 17.3877 1.66733 17.153 1.792 16.823L4.377 10.157C4.40633 10.157 4.43567 10.157 4.465 10.157C4.49433 10.157 4.52367 10.157 4.553 10.157ZM5.895 14.832V15.052H2.617L2.727 14.832H5.895ZM11.7289 10.212C13.0415 10.212 14.0169 10.542 14.6549 11.202C15.2929 11.8547 15.6119 12.7933 15.6119 14.018C15.6119 14.8173 15.4542 15.5177 15.1389 16.119C14.8309 16.713 14.3799 17.175 13.7859 17.505C13.1919 17.835 12.4732 18 11.6299 18C11.5199 18 11.3732 17.9963 11.1899 17.989C11.0065 17.9817 10.8159 17.978 10.6179 17.978C10.4272 17.9707 10.2512 17.967 10.0899 17.967C9.8332 17.967 9.5802 17.9707 9.33087 17.978C9.08153 17.978 8.87987 17.9853 8.72587 18V17.78C8.9752 17.7653 9.1622 17.736 9.28687 17.692C9.41887 17.648 9.50687 17.56 9.55087 17.428C9.59487 17.296 9.61687 17.098 9.61687 16.834V11.378C9.61687 11.1067 9.59487 10.9087 9.55087 10.784C9.50687 10.652 9.41887 10.564 9.28687 10.52C9.1622 10.4687 8.9752 10.4393 8.72587 10.432V10.212C8.87987 10.2193 9.08153 10.2303 9.33087 10.245C9.5802 10.2523 9.82587 10.2523 10.0679 10.245C10.3245 10.2377 10.6142 10.2303 10.9369 10.223C11.2595 10.2157 11.5235 10.212 11.7289 10.212ZM11.4539 10.41C11.1165 10.41 10.8965 10.4723 10.7939 10.597C10.6912 10.7217 10.6399 10.9747 10.6399 11.356V16.856C10.6399 17.2373 10.6912 17.4903 10.7939 17.615C10.9039 17.7397 11.1275 17.802 11.4649 17.802C12.2642 17.802 12.8839 17.659 13.3239 17.373C13.7639 17.0797 14.0719 16.6543 14.2479 16.097C14.4239 15.5397 14.5119 14.8613 14.5119 14.062C14.5119 13.2407 14.4129 12.5623 14.2149 12.027C14.0242 11.4843 13.7052 11.081 13.2579 10.817C12.8179 10.5457 12.2165 10.41 11.4539 10.41ZM23.5982 10.212V10.432C23.4589 10.4613 23.3085 10.5457 23.1472 10.685C22.9932 10.8243 22.8539 11.059 22.7292 11.389L20.1442 18.055C20.1295 18.055 20.1149 18.055 20.1002 18.055C20.0855 18.055 20.0709 18.055 20.0562 18.055C20.0415 18.055 20.0269 18.055 20.0122 18.055C19.9975 18.055 19.9829 18.055 19.9682 18.055L17.2842 11.136C17.1742 10.8573 17.0495 10.674 16.9102 10.586C16.7709 10.4907 16.6425 10.4393 16.5252 10.432V10.212C16.6719 10.2193 16.8515 10.2267 17.0642 10.234C17.2842 10.2413 17.4969 10.245 17.7022 10.245C17.9882 10.245 18.2559 10.2413 18.5052 10.234C18.7545 10.2267 18.9562 10.2193 19.1102 10.212V10.432C18.8609 10.4393 18.6702 10.4687 18.5382 10.52C18.4135 10.5713 18.3439 10.663 18.3292 10.795C18.3219 10.9197 18.3659 11.1067 18.4612 11.356L20.5072 16.779L20.3312 16.966L22.2452 11.994C22.3992 11.598 22.4725 11.29 22.4652 11.07C22.4579 10.8427 22.3735 10.6813 22.2122 10.586C22.0509 10.4907 21.8162 10.4393 21.5082 10.432V10.212C21.7209 10.2193 21.9372 10.2267 22.1572 10.234C22.3772 10.2413 22.5825 10.245 22.7732 10.245C22.9639 10.245 23.1215 10.2413 23.2462 10.234C23.3709 10.2267 23.4882 10.2193 23.5982 10.212ZM27.9683 10.058C28.665 10.058 29.2736 10.2157 29.7943 10.531C30.3223 10.8463 30.7293 11.301 31.0153 11.895C31.3086 12.4817 31.4553 13.1967 31.4553 14.04C31.4553 14.8613 31.305 15.58 31.0043 16.196C30.711 16.812 30.3003 17.2923 29.7723 17.637C29.2443 17.9817 28.6393 18.154 27.9573 18.154C27.2606 18.154 26.6483 17.9963 26.1203 17.681C25.5996 17.3657 25.1926 16.911 24.8993 16.317C24.6133 15.723 24.4703 15.008 24.4703 14.172C24.4703 13.3507 24.6206 12.632 24.9213 12.016C25.222 11.4 25.6326 10.9197 26.1533 10.575C26.6813 10.2303 27.2863 10.058 27.9683 10.058ZM27.9243 10.256C27.4476 10.256 27.0333 10.421 26.6813 10.751C26.3293 11.081 26.0543 11.5357 25.8563 12.115C25.6656 12.6943 25.5703 13.3653 25.5703 14.128C25.5703 14.9053 25.6766 15.5837 25.8893 16.163C26.1093 16.735 26.4026 17.1787 26.7693 17.494C27.1433 17.802 27.554 17.956 28.0013 17.956C28.478 17.956 28.8923 17.791 29.2443 17.461C29.5963 17.131 29.8676 16.6763 30.0583 16.097C30.2563 15.5103 30.3553 14.8393 30.3553 14.084C30.3553 13.2993 30.2453 12.621 30.0253 12.049C29.8126 11.477 29.523 11.037 29.1563 10.729C28.7896 10.4137 28.379 10.256 27.9243 10.256ZM39.2697 10.212V10.432C39.0424 10.4613 38.8224 10.5347 38.6097 10.652C38.397 10.7693 38.1844 10.9637 37.9717 11.235L35.8487 13.952L36.0907 13.413L38.7307 17.109C38.8554 17.2923 38.991 17.4353 39.1377 17.538C39.2844 17.6407 39.4714 17.7213 39.6987 17.78V18C39.5227 17.9853 39.3027 17.978 39.0387 17.978C38.782 17.9707 38.562 17.967 38.3787 17.967C38.254 17.967 38.1 17.9707 37.9167 17.978C37.7407 17.978 37.517 17.9853 37.2457 18V17.78C37.495 17.7653 37.6527 17.7213 37.7187 17.648C37.7847 17.5747 37.759 17.4537 37.6417 17.285L36.0357 14.865C35.889 14.6377 35.757 14.469 35.6397 14.359C35.5297 14.2417 35.4124 14.1647 35.2877 14.128C35.1704 14.0913 35.02 14.0693 34.8367 14.062V13.842C35.1447 13.8347 35.4014 13.776 35.6067 13.666C35.8194 13.5487 35.9954 13.402 36.1347 13.226L37.1907 11.884C37.4327 11.576 37.5977 11.3157 37.6857 11.103C37.7737 10.8903 37.77 10.729 37.6747 10.619C37.5794 10.5017 37.3777 10.4393 37.0697 10.432V10.212C37.209 10.2193 37.352 10.2267 37.4987 10.234C37.6454 10.234 37.7884 10.2377 37.9277 10.245C38.0744 10.245 38.21 10.245 38.3347 10.245C38.5254 10.245 38.7014 10.2413 38.8627 10.234C39.024 10.2267 39.1597 10.2193 39.2697 10.212ZM35.7717 10.212V10.432C35.5224 10.4393 35.3317 10.4687 35.1997 10.52C35.075 10.564 34.9907 10.652 34.9467 10.784C34.9027 10.9087 34.8807 11.1067 34.8807 11.378V16.834C34.8807 17.098 34.9027 17.296 34.9467 17.428C34.9907 17.56 35.075 17.648 35.1997 17.692C35.3317 17.736 35.5224 17.7653 35.7717 17.78V18C35.603 17.9853 35.3904 17.978 35.1337 17.978C34.8844 17.9707 34.6314 17.967 34.3747 17.967C34.0887 17.967 33.821 17.9707 33.5717 17.978C33.3224 17.978 33.1207 17.9853 32.9667 18V17.78C33.216 17.7653 33.403 17.736 33.5277 17.692C33.6597 17.648 33.7477 17.56 33.7917 17.428C33.8357 17.296 33.8577 17.098 33.8577 16.834V11.378C33.8577 11.1067 33.8357 10.9087 33.7917 10.784C33.7477 10.652 33.6597 10.564 33.5277 10.52C33.403 10.4687 33.216 10.4393 32.9667 10.432V10.212C33.1207 10.2193 33.3224 10.2267 33.5717 10.234C33.821 10.2413 34.0887 10.245 34.3747 10.245C34.6314 10.245 34.8844 10.2413 35.1337 10.234C35.3904 10.2267 35.603 10.2193 35.7717 10.212ZM43.8157 10.157L46.4997 17.076C46.6097 17.3547 46.7344 17.5417 46.8737 17.637C47.013 17.725 47.1414 17.7727 47.2587 17.78V18C47.112 17.9853 46.9324 17.978 46.7197 17.978C46.507 17.9707 46.2944 17.967 46.0817 17.967C45.7957 17.967 45.528 17.9707 45.2787 17.978C45.0294 17.978 44.8277 17.9853 44.6737 18V17.78C45.0477 17.7653 45.286 17.703 45.3887 17.593C45.4914 17.4757 45.4694 17.23 45.3227 16.856L43.2767 11.389L43.4527 11.246L41.5387 16.218C41.4214 16.5113 41.3517 16.7607 41.3297 16.966C41.3077 17.164 41.326 17.3217 41.3847 17.439C41.4507 17.5563 41.557 17.6407 41.7037 17.692C41.8577 17.7433 42.0484 17.7727 42.2757 17.78V18C42.0704 17.9853 41.854 17.978 41.6267 17.978C41.4067 17.9707 41.2014 17.967 41.0107 17.967C40.8274 17.967 40.6697 17.9707 40.5377 17.978C40.413 17.978 40.2957 17.9853 40.1857 18V17.78C40.3324 17.7433 40.4827 17.659 40.6367 17.527C40.7907 17.3877 40.93 17.153 41.0547 16.823L43.6397 10.157C43.669 10.157 43.6984 10.157 43.7277 10.157C43.757 10.157 43.7864 10.157 43.8157 10.157ZM45.1577 14.832V15.052H41.8797L41.9897 14.832H45.1577ZM53.7056 10.212C53.6762 10.4907 53.6542 10.762 53.6396 11.026C53.6322 11.2827 53.6286 11.4807 53.6286 11.62C53.6286 11.796 53.6322 11.961 53.6396 12.115C53.6469 12.269 53.6542 12.4047 53.6616 12.522H53.4086C53.3572 12.0087 53.2876 11.6053 53.1996 11.312C53.1116 11.0113 52.9576 10.795 52.7376 10.663C52.5176 10.531 52.1766 10.465 51.7146 10.465H51.1206V16.724C51.1206 17.0173 51.1462 17.2373 51.1976 17.384C51.2562 17.5307 51.3662 17.6297 51.5276 17.681C51.6889 17.7323 51.9236 17.7653 52.2316 17.78V18C52.0409 17.9853 51.7989 17.978 51.5056 17.978C51.2122 17.9707 50.9152 17.967 50.6146 17.967C50.2846 17.967 49.9729 17.9707 49.6796 17.978C49.3936 17.978 49.1626 17.9853 48.9866 18V17.78C49.2946 17.7653 49.5292 17.7323 49.6906 17.681C49.8519 17.6297 49.9582 17.5307 50.0096 17.384C50.0682 17.2373 50.0976 17.0173 50.0976 16.724V10.465H49.5036C49.0489 10.465 48.7079 10.531 48.4806 10.663C48.2606 10.795 48.1066 11.0113 48.0186 11.312C47.9306 11.6053 47.8609 12.0087 47.8096 12.522H47.5566C47.5712 12.4047 47.5786 12.269 47.5786 12.115C47.5859 11.961 47.5896 11.796 47.5896 11.62C47.5896 11.4807 47.5822 11.2827 47.5676 11.026C47.5602 10.762 47.5419 10.4907 47.5126 10.212C47.8206 10.2193 48.1542 10.2267 48.5136 10.234C48.8802 10.2413 49.2469 10.245 49.6136 10.245C49.9802 10.245 50.3139 10.245 50.6146 10.245C50.9152 10.245 51.2452 10.245 51.6046 10.245C51.9712 10.245 52.3379 10.2413 52.7046 10.234C53.0712 10.2267 53.4049 10.2193 53.7056 10.212ZM57.3916 10.091C57.7583 10.091 58.0369 10.135 58.2276 10.223C58.4183 10.3037 58.5869 10.3953 58.7336 10.498C58.8216 10.5493 58.8913 10.5897 58.9426 10.619C59.0013 10.641 59.0563 10.652 59.1076 10.652C59.1809 10.652 59.2323 10.6117 59.2616 10.531C59.2983 10.4503 59.3276 10.3293 59.3496 10.168H59.6026C59.5953 10.2927 59.5843 10.443 59.5696 10.619C59.5623 10.7877 59.5549 11.015 59.5476 11.301C59.5476 11.5797 59.5476 11.95 59.5476 12.412H59.2946C59.2726 12.06 59.1956 11.7227 59.0636 11.4C58.9316 11.0773 58.7373 10.8133 58.4806 10.608C58.2313 10.4027 57.9013 10.3 57.4906 10.3C57.1019 10.3 56.7793 10.4173 56.5226 10.652C56.2733 10.8867 56.1486 11.1947 56.1486 11.576C56.1486 11.906 56.2329 12.1847 56.4016 12.412C56.5703 12.632 56.7939 12.8337 57.0726 13.017C57.3586 13.193 57.6666 13.3837 57.9966 13.589C58.3779 13.8237 58.7153 14.0583 59.0086 14.293C59.3093 14.5203 59.5439 14.7733 59.7126 15.052C59.8886 15.3307 59.9766 15.668 59.9766 16.064C59.9766 16.5333 59.8703 16.922 59.6576 17.23C59.4449 17.538 59.1626 17.769 58.8106 17.923C58.4586 18.077 58.0699 18.154 57.6446 18.154C57.2559 18.154 56.9479 18.11 56.7206 18.022C56.4933 17.934 56.2989 17.8423 56.1376 17.747C55.9763 17.6443 55.8516 17.593 55.7636 17.593C55.6903 17.593 55.6353 17.6333 55.5986 17.714C55.5693 17.7947 55.5436 17.9157 55.5216 18.077H55.2686C55.2833 17.923 55.2906 17.7433 55.2906 17.538C55.2979 17.3253 55.3016 17.0503 55.3016 16.713C55.3089 16.3757 55.3126 15.9503 55.3126 15.437H55.5656C55.5949 15.877 55.6756 16.2877 55.8076 16.669C55.9469 17.0503 56.1559 17.3583 56.4346 17.593C56.7206 17.8203 57.0983 17.934 57.5676 17.934C57.8096 17.934 58.0369 17.8863 58.2496 17.791C58.4696 17.6883 58.6493 17.5307 58.7886 17.318C58.9279 17.098 58.9976 16.8157 58.9976 16.471C58.9976 16.1703 58.9243 15.91 58.7776 15.69C58.6383 15.4627 58.4403 15.2537 58.1836 15.063C57.9269 14.865 57.6263 14.6633 57.2816 14.458C56.9369 14.2453 56.6143 14.029 56.3136 13.809C56.0129 13.589 55.7709 13.336 55.5876 13.05C55.4116 12.7567 55.3236 12.4047 55.3236 11.994C55.3236 11.5613 55.4189 11.2057 55.6096 10.927C55.8076 10.641 56.0643 10.432 56.3796 10.3C56.6949 10.1607 57.0323 10.091 57.3916 10.091ZM67.831 10.212V10.432C67.6037 10.4613 67.3837 10.5347 67.171 10.652C66.9584 10.7693 66.7457 10.9637 66.533 11.235L64.41 13.952L64.652 13.413L67.292 17.109C67.4167 17.2923 67.5524 17.4353 67.699 17.538C67.8457 17.6407 68.0327 17.7213 68.26 17.78V18C68.084 17.9853 67.864 17.978 67.6 17.978C67.3434 17.9707 67.1234 17.967 66.94 17.967C66.8154 17.967 66.6614 17.9707 66.478 17.978C66.302 17.978 66.0784 17.9853 65.807 18V17.78C66.0564 17.7653 66.214 17.7213 66.28 17.648C66.346 17.5747 66.3204 17.4537 66.203 17.285L64.597 14.865C64.4504 14.6377 64.3184 14.469 64.201 14.359C64.091 14.2417 63.9737 14.1647 63.849 14.128C63.7317 14.0913 63.5814 14.0693 63.398 14.062V13.842C63.706 13.8347 63.9627 13.776 64.168 13.666C64.3807 13.5487 64.5567 13.402 64.696 13.226L65.752 11.884C65.994 11.576 66.159 11.3157 66.247 11.103C66.335 10.8903 66.3314 10.729 66.236 10.619C66.1407 10.5017 65.939 10.4393 65.631 10.432V10.212C65.7704 10.2193 65.9134 10.2267 66.06 10.234C66.2067 10.234 66.3497 10.2377 66.489 10.245C66.6357 10.245 66.7714 10.245 66.896 10.245C67.0867 10.245 67.2627 10.2413 67.424 10.234C67.5854 10.2267 67.721 10.2193 67.831 10.212ZM64.333 10.212V10.432C64.0837 10.4393 63.893 10.4687 63.761 10.52C63.6364 10.564 63.552 10.652 63.508 10.784C63.464 10.9087 63.442 11.1067 63.442 11.378V16.834C63.442 17.098 63.464 17.296 63.508 17.428C63.552 17.56 63.6364 17.648 63.761 17.692C63.893 17.736 64.0837 17.7653 64.333 17.78V18C64.1644 17.9853 63.9517 17.978 63.695 17.978C63.4457 17.9707 63.1927 17.967 62.936 17.967C62.65 17.967 62.3824 17.9707 62.133 17.978C61.8837 17.978 61.682 17.9853 61.528 18V17.78C61.7774 17.7653 61.9644 17.736 62.089 17.692C62.221 17.648 62.309 17.56 62.353 17.428C62.397 17.296 62.419 17.098 62.419 16.834V11.378C62.419 11.1067 62.397 10.9087 62.353 10.784C62.309 10.652 62.221 10.564 62.089 10.52C61.9644 10.4687 61.7774 10.4393 61.528 10.432V10.212C61.682 10.2193 61.8837 10.2267 62.133 10.234C62.3824 10.2413 62.65 10.245 62.936 10.245C63.1927 10.245 63.4457 10.2413 63.695 10.234C63.9517 10.2267 64.1644 10.2193 64.333 10.212ZM72.377 10.157L75.061 17.076C75.171 17.3547 75.2957 17.5417 75.435 17.637C75.5744 17.725 75.7027 17.7727 75.82 17.78V18C75.6734 17.9853 75.4937 17.978 75.281 17.978C75.0684 17.9707 74.8557 17.967 74.643 17.967C74.357 17.967 74.0894 17.9707 73.84 17.978C73.5907 17.978 73.389 17.9853 73.235 18V17.78C73.609 17.7653 73.8474 17.703 73.95 17.593C74.0527 17.4757 74.0307 17.23 73.884 16.856L71.838 11.389L72.014 11.246L70.1 16.218C69.9827 16.5113 69.913 16.7607 69.891 16.966C69.869 17.164 69.8874 17.3217 69.946 17.439C70.012 17.5563 70.1184 17.6407 70.265 17.692C70.419 17.7433 70.6097 17.7727 70.837 17.78V18C70.6317 17.9853 70.4154 17.978 70.188 17.978C69.968 17.9707 69.7627 17.967 69.572 17.967C69.3887 17.967 69.231 17.9707 69.099 17.978C68.9744 17.978 68.857 17.9853 68.747 18V17.78C68.8937 17.7433 69.044 17.659 69.198 17.527C69.352 17.3877 69.4914 17.153 69.616 16.823L72.201 10.157C72.2304 10.157 72.2597 10.157 72.289 10.157C72.3184 10.157 72.3477 10.157 72.377 10.157ZM73.719 14.832V15.052H70.441L70.551 14.832H73.719Z" fill="#333333"/>
<path d="M7.765 21.212V21.432C7.53767 21.4613 7.31767 21.5347 7.105 21.652C6.89233 21.7693 6.67967 21.9637 6.467 22.235L4.344 24.952L4.586 24.413L7.226 28.109C7.35067 28.2923 7.48633 28.4353 7.633 28.538C7.77967 28.6407 7.96667 28.7213 8.194 28.78V29C8.018 28.9853 7.798 28.978 7.534 28.978C7.27733 28.9707 7.05733 28.967 6.874 28.967C6.74933 28.967 6.59533 28.9707 6.412 28.978C6.236 28.978 6.01233 28.9853 5.741 29V28.78C5.99033 28.7653 6.148 28.7213 6.214 28.648C6.28 28.5747 6.25433 28.4537 6.137 28.285L4.531 25.865C4.38433 25.6377 4.25233 25.469 4.135 25.359C4.025 25.2417 3.90767 25.1647 3.783 25.128C3.66567 25.0913 3.51533 25.0693 3.332 25.062V24.842C3.64 24.8347 3.89667 24.776 4.102 24.666C4.31467 24.5487 4.49067 24.402 4.63 24.226L5.686 22.884C5.928 22.576 6.093 22.3157 6.181 22.103C6.269 21.8903 6.26533 21.729 6.17 21.619C6.07467 21.5017 5.873 21.4393 5.565 21.432V21.212C5.70433 21.2193 5.84733 21.2267 5.994 21.234C6.14067 21.234 6.28367 21.2377 6.423 21.245C6.56967 21.245 6.70533 21.245 6.83 21.245C7.02067 21.245 7.19667 21.2413 7.358 21.234C7.51933 21.2267 7.655 21.2193 7.765 21.212ZM4.267 21.212V21.432C4.01767 21.4393 3.827 21.4687 3.695 21.52C3.57033 21.564 3.486 21.652 3.442 21.784C3.398 21.9087 3.376 22.1067 3.376 22.378V27.834C3.376 28.098 3.398 28.296 3.442 28.428C3.486 28.56 3.57033 28.648 3.695 28.692C3.827 28.736 4.01767 28.7653 4.267 28.78V29C4.09833 28.9853 3.88567 28.978 3.629 28.978C3.37967 28.9707 3.12667 28.967 2.87 28.967C2.584 28.967 2.31633 28.9707 2.067 28.978C1.81767 28.978 1.616 28.9853 1.462 29V28.78C1.71133 28.7653 1.89833 28.736 2.023 28.692C2.155 28.648 2.243 28.56 2.287 28.428C2.331 28.296 2.353 28.098 2.353 27.834V22.378C2.353 22.1067 2.331 21.9087 2.287 21.784C2.243 21.652 2.155 21.564 2.023 21.52C1.89833 21.4687 1.71133 21.4393 1.462 21.432V21.212C1.616 21.2193 1.81767 21.2267 2.067 21.234C2.31633 21.2413 2.584 21.245 2.87 21.245C3.12667 21.245 3.37967 21.2413 3.629 21.234C3.88567 21.2267 4.09833 21.2193 4.267 21.212ZM12.201 21.157L14.885 28.076C14.995 28.3547 15.1197 28.5417 15.259 28.637C15.3983 28.725 15.5267 28.7727 15.644 28.78V29C15.4973 28.9853 15.3177 28.978 15.105 28.978C14.8923 28.9707 14.6797 28.967 14.467 28.967C14.181 28.967 13.9133 28.9707 13.664 28.978C13.4147 28.978 13.213 28.9853 13.059 29V28.78C13.433 28.7653 13.6713 28.703 13.774 28.593C13.8767 28.4757 13.8547 28.23 13.708 27.856L11.662 22.389L11.838 22.246L9.92401 27.218C9.80667 27.5113 9.73701 27.7607 9.71501 27.966C9.69301 28.164 9.71134 28.3217 9.77001 28.439C9.83601 28.5563 9.94234 28.6407 10.089 28.692C10.243 28.7433 10.4337 28.7727 10.661 28.78V29C10.4557 28.9853 10.2393 28.978 10.012 28.978C9.79201 28.9707 9.58667 28.967 9.39601 28.967C9.21267 28.967 9.05501 28.9707 8.92301 28.978C8.79834 28.978 8.68101 28.9853 8.57101 29V28.78C8.71767 28.7433 8.86801 28.659 9.02201 28.527C9.17601 28.3877 9.31534 28.153 9.44001 27.823L12.025 21.157C12.0543 21.157 12.0837 21.157 12.113 21.157C12.1423 21.157 12.1717 21.157 12.201 21.157ZM13.543 25.832V26.052H10.265L10.375 25.832H13.543ZM23.1719 21.212V21.432C22.9225 21.4393 22.7319 21.476 22.5999 21.542C22.4752 21.608 22.3909 21.7143 22.3469 21.861C22.3029 22.0077 22.2809 22.2167 22.2809 22.488V29.055C22.2369 29.055 22.1929 29.055 22.1489 29.055C22.1122 29.055 22.0719 29.055 22.0279 29.055L17.4079 21.916V27.724C17.4079 27.988 17.4299 28.197 17.4739 28.351C17.5252 28.4977 17.6205 28.604 17.7599 28.67C17.9065 28.7287 18.1229 28.7653 18.4089 28.78V29C18.2769 28.9853 18.1045 28.978 17.8919 28.978C17.6792 28.9707 17.4775 28.967 17.2869 28.967C17.1035 28.967 16.9165 28.9707 16.7259 28.978C16.5425 28.978 16.3885 28.9853 16.2639 29V28.78C16.5132 28.7653 16.7002 28.7287 16.8249 28.67C16.9569 28.604 17.0449 28.4977 17.0889 28.351C17.1329 28.197 17.1549 27.988 17.1549 27.724V22.378C17.1549 22.1067 17.1329 21.9087 17.0889 21.784C17.0449 21.652 16.9569 21.564 16.8249 21.52C16.7002 21.4687 16.5132 21.4393 16.2639 21.432V21.212C16.3885 21.2193 16.5425 21.2267 16.7259 21.234C16.9165 21.2413 17.1035 21.245 17.2869 21.245C17.4482 21.245 17.6022 21.2413 17.7489 21.234C17.8955 21.2267 18.0275 21.2193 18.1449 21.212L22.0279 27.196V22.488C22.0279 22.2167 22.0022 22.0077 21.9509 21.861C21.9069 21.7143 21.8115 21.608 21.6649 21.542C21.5255 21.476 21.3129 21.4393 21.0269 21.432V21.212C21.1589 21.2193 21.3312 21.2267 21.5439 21.234C21.7639 21.2413 21.9655 21.245 22.1489 21.245C22.3395 21.245 22.5265 21.2413 22.7099 21.234C22.9005 21.2267 23.0545 21.2193 23.1719 21.212ZM28.0143 21.058C28.4983 21.058 28.8943 21.1313 29.2023 21.278C29.5176 21.4173 29.7963 21.5823 30.0383 21.773C30.1849 21.883 30.2949 21.8977 30.3683 21.817C30.4489 21.729 30.5039 21.5273 30.5333 21.212H30.7863C30.7716 21.4833 30.7606 21.8133 30.7533 22.202C30.7459 22.5907 30.7423 23.104 30.7423 23.742H30.4893C30.4379 23.4267 30.3903 23.1773 30.3463 22.994C30.3023 22.8033 30.2473 22.642 30.1813 22.51C30.1226 22.378 30.0419 22.246 29.9393 22.114C29.7119 21.8133 29.4259 21.597 29.0813 21.465C28.7366 21.3257 28.3736 21.256 27.9923 21.256C27.6329 21.256 27.3066 21.3477 27.0133 21.531C26.7273 21.707 26.4779 21.9637 26.2653 22.301C26.0599 22.6383 25.8986 23.0453 25.7813 23.522C25.6713 23.9987 25.6163 24.534 25.6163 25.128C25.6163 25.744 25.6786 26.2903 25.8033 26.767C25.9279 27.2363 26.1003 27.6323 26.3203 27.955C26.5476 28.2777 26.8116 28.5233 27.1123 28.692C27.4203 28.8533 27.7503 28.934 28.1023 28.934C28.4323 28.934 28.7769 28.868 29.1363 28.736C29.4956 28.604 29.7779 28.3913 29.9833 28.098C30.1446 27.8853 30.2546 27.6543 30.3133 27.405C30.3793 27.1557 30.4379 26.8073 30.4893 26.36H30.7423C30.7423 27.0273 30.7459 27.5663 30.7533 27.977C30.7606 28.3803 30.7716 28.7213 30.7863 29H30.5333C30.5039 28.6847 30.4526 28.4867 30.3793 28.406C30.3133 28.3253 30.1996 28.3363 30.0383 28.439C29.7669 28.6297 29.4773 28.7983 29.1693 28.945C28.8686 29.0843 28.4799 29.154 28.0033 29.154C27.3066 29.154 26.6943 28.9963 26.1663 28.681C25.6456 28.3657 25.2386 27.911 24.9453 27.317C24.6593 26.723 24.5163 26.008 24.5163 25.172C24.5163 24.3507 24.6666 23.632 24.9673 23.016C25.2679 22.4 25.6786 21.9197 26.1993 21.575C26.7273 21.2303 27.3323 21.058 28.0143 21.058ZM37.8975 21.212C37.8682 21.4687 37.8462 21.718 37.8315 21.96C37.8242 22.202 37.8205 22.3853 37.8205 22.51C37.8205 22.642 37.8242 22.7703 37.8315 22.895C37.8389 23.0123 37.8462 23.1113 37.8535 23.192H37.6005C37.5565 22.7593 37.4942 22.4183 37.4135 22.169C37.3329 21.9123 37.1935 21.7327 36.9955 21.63C36.8049 21.52 36.5152 21.465 36.1265 21.465H35.2135C34.9642 21.465 34.7735 21.487 34.6415 21.531C34.5169 21.5677 34.4325 21.652 34.3885 21.784C34.3445 21.9087 34.3225 22.1067 34.3225 22.378V27.834C34.3225 28.098 34.3445 28.296 34.3885 28.428C34.4325 28.56 34.5169 28.648 34.6415 28.692C34.7735 28.7287 34.9642 28.747 35.2135 28.747H36.0165C36.4785 28.747 36.8269 28.6847 37.0615 28.56C37.3035 28.4353 37.4759 28.2337 37.5785 27.955C37.6885 27.669 37.7692 27.284 37.8205 26.8H38.0735C38.0515 26.998 38.0405 27.262 38.0405 27.592C38.0405 27.7313 38.0442 27.933 38.0515 28.197C38.0662 28.4537 38.0882 28.7213 38.1175 29C37.7435 28.9853 37.3219 28.978 36.8525 28.978C36.3832 28.9707 35.9652 28.967 35.5985 28.967C35.4372 28.967 35.2282 28.967 34.9715 28.967C34.7222 28.967 34.4509 28.9707 34.1575 28.978C33.8642 28.978 33.5672 28.9817 33.2665 28.989C32.9659 28.989 32.6799 28.9927 32.4085 29V28.78C32.6579 28.7653 32.8449 28.736 32.9695 28.692C33.1015 28.648 33.1895 28.56 33.2335 28.428C33.2775 28.296 33.2995 28.098 33.2995 27.834V22.378C33.2995 22.1067 33.2775 21.9087 33.2335 21.784C33.1895 21.652 33.1015 21.564 32.9695 21.52C32.8449 21.4687 32.6579 21.4393 32.4085 21.432V21.212C32.6799 21.2193 32.9659 21.2267 33.2665 21.234C33.5672 21.234 33.8642 21.2377 34.1575 21.245C34.4509 21.245 34.7222 21.245 34.9715 21.245C35.2282 21.245 35.4372 21.245 35.5985 21.245C35.9359 21.245 36.3172 21.245 36.7425 21.245C37.1752 21.2377 37.5602 21.2267 37.8975 21.212ZM36.0055 24.974C36.0055 24.974 36.0055 25.0107 36.0055 25.084C36.0055 25.1573 36.0055 25.194 36.0055 25.194H33.9925C33.9925 25.194 33.9925 25.1573 33.9925 25.084C33.9925 25.0107 33.9925 24.974 33.9925 24.974H36.0055ZM36.3245 23.522C36.2952 23.94 36.2805 24.259 36.2805 24.479C36.2879 24.699 36.2915 24.9007 36.2915 25.084C36.2915 25.2673 36.2952 25.469 36.3025 25.689C36.3099 25.909 36.3282 26.228 36.3575 26.646H36.1045C36.0752 26.4113 36.0385 26.184 35.9945 25.964C35.9579 25.7367 35.8699 25.5533 35.7305 25.414C35.5985 25.2673 35.3712 25.194 35.0485 25.194V24.974C35.2905 24.974 35.4739 24.9263 35.5985 24.831C35.7305 24.7283 35.8259 24.6 35.8845 24.446C35.9432 24.292 35.9835 24.1343 36.0055 23.973C36.0275 23.8043 36.0495 23.654 36.0715 23.522H36.3245ZM42.3566 21.212V21.432C42.1073 21.4393 41.9166 21.4687 41.7846 21.52C41.66 21.564 41.5756 21.652 41.5316 21.784C41.4876 21.9087 41.4656 22.1067 41.4656 22.378V27.834C41.4656 28.098 41.4876 28.296 41.5316 28.428C41.5756 28.56 41.66 28.648 41.7846 28.692C41.9166 28.7287 42.1073 28.747 42.3566 28.747H43.1596C43.5043 28.747 43.783 28.7103 43.9956 28.637C44.2156 28.5637 44.388 28.45 44.5126 28.296C44.6446 28.1347 44.7436 27.922 44.8096 27.658C44.8756 27.394 44.927 27.0713 44.9636 26.69H45.2166C45.1946 26.9173 45.1836 27.218 45.1836 27.592C45.1836 27.7313 45.1873 27.933 45.1946 28.197C45.2093 28.4537 45.2313 28.7213 45.2606 29C44.8866 28.9853 44.465 28.978 43.9956 28.978C43.5263 28.9707 43.1083 28.967 42.7416 28.967C42.5803 28.967 42.3713 28.967 42.1146 28.967C41.8653 28.967 41.594 28.9707 41.3006 28.978C41.0073 28.978 40.7103 28.9817 40.4096 28.989C40.109 28.989 39.823 28.9927 39.5516 29V28.78C39.801 28.7653 39.988 28.736 40.1126 28.692C40.2446 28.648 40.3326 28.56 40.3766 28.428C40.4206 28.296 40.4426 28.098 40.4426 27.834V22.378C40.4426 22.1067 40.4206 21.9087 40.3766 21.784C40.3326 21.652 40.2446 21.564 40.1126 21.52C39.988 21.4687 39.801 21.4393 39.5516 21.432V21.212C39.7056 21.2193 39.9073 21.2267 40.1566 21.234C40.406 21.2413 40.6736 21.245 40.9596 21.245C41.2163 21.245 41.4693 21.2413 41.7186 21.234C41.9753 21.2267 42.188 21.2193 42.3566 21.212ZM49.5494 21.157L52.2334 28.076C52.3434 28.3547 52.4681 28.5417 52.6074 28.637C52.7468 28.725 52.8751 28.7727 52.9924 28.78V29C52.8458 28.9853 52.6661 28.978 52.4534 28.978C52.2408 28.9707 52.0281 28.967 51.8154 28.967C51.5294 28.967 51.2618 28.9707 51.0124 28.978C50.7631 28.978 50.5614 28.9853 50.4074 29V28.78C50.7814 28.7653 51.0198 28.703 51.1224 28.593C51.2251 28.4757 51.2031 28.23 51.0564 27.856L49.0104 22.389L49.1864 22.246L47.2724 27.218C47.1551 27.5113 47.0854 27.7607 47.0634 27.966C47.0414 28.164 47.0598 28.3217 47.1184 28.439C47.1844 28.5563 47.2908 28.6407 47.4374 28.692C47.5914 28.7433 47.7821 28.7727 48.0094 28.78V29C47.8041 28.9853 47.5878 28.978 47.3604 28.978C47.1404 28.9707 46.9351 28.967 46.7444 28.967C46.5611 28.967 46.4034 28.9707 46.2714 28.978C46.1468 28.978 46.0294 28.9853 45.9194 29V28.78C46.0661 28.7433 46.2164 28.659 46.3704 28.527C46.5244 28.3877 46.6638 28.153 46.7884 27.823L49.3734 21.157C49.4028 21.157 49.4321 21.157 49.4614 21.157C49.4908 21.157 49.5201 21.157 49.5494 21.157ZM50.8914 25.832V26.052H47.6134L47.7234 25.832H50.8914ZM53.6123 21.212C53.7663 21.2193 53.968 21.2267 54.2173 21.234C54.4666 21.2413 54.7123 21.245 54.9543 21.245C55.299 21.245 55.629 21.2413 55.9443 21.234C56.2596 21.2267 56.4833 21.223 56.6153 21.223C57.2093 21.223 57.7006 21.3073 58.0893 21.476C58.4853 21.6447 58.7786 21.8757 58.9693 22.169C59.1673 22.455 59.2663 22.7777 59.2663 23.137C59.2663 23.357 59.2223 23.5917 59.1343 23.841C59.0463 24.0903 58.8923 24.325 58.6723 24.545C58.4596 24.765 58.1663 24.9483 57.7923 25.095C57.4183 25.2343 56.9453 25.304 56.3733 25.304H55.3173V25.084H56.2633C56.784 25.084 57.18 25.0033 57.4513 24.842C57.73 24.6733 57.917 24.4533 58.0123 24.182C58.115 23.9033 58.1663 23.5953 58.1663 23.258C58.1663 22.6787 58.027 22.2313 57.7483 21.916C57.477 21.5933 57.0076 21.432 56.3403 21.432C56.003 21.432 55.783 21.4943 55.6803 21.619C55.5776 21.7437 55.5263 21.9967 55.5263 22.378V27.834C55.5263 28.098 55.5483 28.296 55.5923 28.428C55.6363 28.56 55.7206 28.648 55.8453 28.692C55.9773 28.736 56.168 28.7653 56.4173 28.78V29C56.2486 28.9853 56.036 28.978 55.7793 28.978C55.53 28.9707 55.277 28.967 55.0203 28.967C54.7343 28.967 54.4666 28.9707 54.2173 28.978C53.968 28.978 53.7663 28.9853 53.6123 29V28.78C53.8616 28.7653 54.0486 28.736 54.1733 28.692C54.3053 28.648 54.3933 28.56 54.4373 28.428C54.4813 28.296 54.5033 28.098 54.5033 27.834V22.378C54.5033 22.1067 54.4813 21.9087 54.4373 21.784C54.3933 21.652 54.3053 21.564 54.1733 21.52C54.0486 21.4687 53.8616 21.4393 53.6123 21.432V21.212ZM55.3613 25.117C55.7573 25.1317 56.069 25.15 56.2963 25.172C56.5236 25.1867 56.707 25.2013 56.8463 25.216C56.993 25.2307 57.1323 25.249 57.2643 25.271C57.7556 25.3517 58.1076 25.502 58.3203 25.722C58.5403 25.9347 58.7016 26.2683 58.8043 26.723L59.0793 27.845C59.1526 28.1677 59.226 28.4023 59.2993 28.549C59.38 28.6883 59.501 28.7543 59.6623 28.747C59.787 28.7397 59.8896 28.6993 59.9703 28.626C60.0583 28.5527 60.15 28.4537 60.2453 28.329L60.4103 28.45C60.2563 28.6773 60.095 28.8533 59.9263 28.978C59.765 29.0953 59.534 29.154 59.2333 29.154C58.962 29.154 58.7236 29.0733 58.5183 28.912C58.313 28.7507 58.159 28.4353 58.0563 27.966L57.8143 26.866C57.7483 26.5507 57.6713 26.2793 57.5833 26.052C57.5026 25.8173 57.3853 25.634 57.2313 25.502C57.0846 25.37 56.8646 25.304 56.5713 25.304H55.3833L55.3613 25.117ZM63.9901 21.212V21.432C63.7408 21.4393 63.5501 21.4687 63.4181 21.52C63.2935 21.564 63.2091 21.652 63.1651 21.784C63.1211 21.9087 63.0991 22.1067 63.0991 22.378V27.834C63.0991 28.098 63.1211 28.296 63.1651 28.428C63.2091 28.56 63.2935 28.648 63.4181 28.692C63.5501 28.736 63.7408 28.7653 63.9901 28.78V29C63.8215 28.9853 63.6088 28.978 63.3521 28.978C63.1028 28.9707 62.8498 28.967 62.5931 28.967C62.3071 28.967 62.0395 28.9707 61.7901 28.978C61.5408 28.978 61.3391 28.9853 61.1851 29V28.78C61.4345 28.7653 61.6215 28.736 61.7461 28.692C61.8781 28.648 61.9661 28.56 62.0101 28.428C62.0541 28.296 62.0761 28.098 62.0761 27.834V22.378C62.0761 22.1067 62.0541 21.9087 62.0101 21.784C61.9661 21.652 61.8781 21.564 61.7461 21.52C61.6215 21.4687 61.4345 21.4393 61.1851 21.432V21.212C61.3391 21.2193 61.5408 21.2267 61.7901 21.234C62.0395 21.2413 62.3071 21.245 62.5931 21.245C62.8498 21.245 63.1028 21.2413 63.3521 21.234C63.6088 21.2267 63.8215 21.2193 63.9901 21.212ZM64.6707 31.068V30.859C65.0007 30.8517 65.2757 30.771 65.4957 30.617C65.723 30.463 65.8917 30.2063 66.0017 29.847C66.119 29.495 66.1777 29.022 66.1777 28.428V22.378C66.1777 22.1067 66.1557 21.9087 66.1117 21.784C66.0677 21.652 65.9797 21.564 65.8477 21.52C65.723 21.4687 65.536 21.4393 65.2867 21.432V21.212C65.4407 21.2193 65.6423 21.2267 65.8917 21.234C66.141 21.2413 66.4013 21.245 66.6727 21.245C66.944 21.245 67.2043 21.2413 67.4537 21.234C67.7103 21.2267 67.923 21.2193 68.0917 21.212V21.432C67.8423 21.4393 67.6517 21.4687 67.5197 21.52C67.395 21.564 67.3107 21.652 67.2667 21.784C67.2227 21.9087 67.2007 22.1067 67.2007 22.378V26.404C67.2007 26.7047 67.197 27.031 67.1897 27.383C67.1823 27.735 67.164 28.076 67.1347 28.406C67.1127 28.736 67.0723 29.0257 67.0137 29.275C66.889 29.7883 66.625 30.2137 66.2217 30.551C65.8257 30.8957 65.3087 31.068 64.6707 31.068ZM72.3749 21.157L75.0589 28.076C75.1689 28.3547 75.2935 28.5417 75.4329 28.637C75.5722 28.725 75.7005 28.7727 75.8179 28.78V29C75.6712 28.9853 75.4915 28.978 75.2789 28.978C75.0662 28.9707 74.8535 28.967 74.6409 28.967C74.3549 28.967 74.0872 28.9707 73.8379 28.978C73.5885 28.978 73.3869 28.9853 73.2329 29V28.78C73.6069 28.7653 73.8452 28.703 73.9479 28.593C74.0505 28.4757 74.0285 28.23 73.8819 27.856L71.8359 22.389L72.0119 22.246L70.0979 27.218C69.9805 27.5113 69.9109 27.7607 69.8889 27.966C69.8669 28.164 69.8852 28.3217 69.9439 28.439C70.0099 28.5563 70.1162 28.6407 70.2629 28.692C70.4169 28.7433 70.6075 28.7727 70.8349 28.78V29C70.6295 28.9853 70.4132 28.978 70.1859 28.978C69.9659 28.9707 69.7605 28.967 69.5699 28.967C69.3865 28.967 69.2289 28.9707 69.0969 28.978C68.9722 28.978 68.8549 28.9853 68.7449 29V28.78C68.8915 28.7433 69.0419 28.659 69.1959 28.527C69.3499 28.3877 69.4892 28.153 69.6139 27.823L72.1989 21.157C72.2282 21.157 72.2575 21.157 72.2869 21.157C72.3162 21.157 72.3455 21.157 72.3749 21.157ZM73.7169 25.832V26.052H70.4389L70.5489 25.832H73.7169Z" fill="#333333"/>
<path d="M87.261 9.884C90.807 9.884 93.444 10.694 95.172 12.314C96.9 13.916 97.764 16.22 97.764 19.226C97.764 21.188 97.341 22.907 96.495 24.383C95.649 25.841 94.416 26.975 92.796 27.785C91.194 28.595 89.268 29 87.018 29C86.73 29 86.352 28.991 85.884 28.973C85.416 28.955 84.93 28.946 84.426 28.946C83.922 28.928 83.472 28.919 83.076 28.919C82.284 28.919 81.501 28.928 80.727 28.946C79.971 28.946 79.368 28.964 78.918 29V28.46C79.494 28.424 79.926 28.352 80.214 28.244C80.502 28.136 80.691 27.92 80.781 27.596C80.889 27.272 80.943 26.786 80.943 26.138V12.746C80.943 12.08 80.889 11.594 80.781 11.288C80.691 10.964 80.493 10.748 80.187 10.64C79.899 10.514 79.476 10.442 78.918 10.424V9.884C79.368 9.902 79.971 9.929 80.727 9.965C81.501 9.983 82.266 9.983 83.022 9.965C83.67 9.947 84.399 9.929 85.209 9.911C86.037 9.893 86.721 9.884 87.261 9.884ZM87.234 10.37C86.406 10.37 85.866 10.523 85.614 10.829C85.362 11.135 85.236 11.756 85.236 12.692V26.192C85.236 27.128 85.362 27.749 85.614 28.055C85.884 28.361 86.433 28.514 87.261 28.514C88.773 28.514 89.961 28.163 90.825 27.461C91.707 26.741 92.337 25.697 92.715 24.329C93.093 22.961 93.282 21.296 93.282 19.334C93.282 17.318 93.075 15.653 92.661 14.339C92.265 13.007 91.626 12.017 90.744 11.369C89.862 10.703 88.692 10.37 87.234 10.37ZM105.016 9.884V10.424C104.44 10.442 103.999 10.514 103.693 10.64C103.405 10.748 103.216 10.964 103.126 11.288C103.036 11.594 102.991 12.08 102.991 12.746V26.138C102.991 26.786 103.036 27.272 103.126 27.596C103.234 27.92 103.432 28.136 103.72 28.244C104.008 28.352 104.44 28.424 105.016 28.46V29C104.53 28.964 103.918 28.946 103.18 28.946C102.442 28.928 101.695 28.919 100.939 28.919C100.057 28.919 99.2376 28.928 98.4816 28.946C97.7436 28.946 97.1406 28.964 96.6726 29V28.46C97.2486 28.424 97.6806 28.352 97.9686 28.244C98.2566 28.136 98.4456 27.92 98.5356 27.596C98.6436 27.272 98.6976 26.786 98.6976 26.138V12.746C98.6976 12.08 98.6436 11.594 98.5356 11.288C98.4456 10.964 98.2476 10.748 97.9416 10.64C97.6536 10.514 97.2306 10.442 96.6726 10.424V9.884C97.1406 9.902 97.7436 9.92 98.4816 9.938C99.2376 9.956 100.057 9.965 100.939 9.965C101.695 9.965 102.442 9.956 103.18 9.938C103.918 9.92 104.53 9.902 105.016 9.884ZM121.647 9.884V10.424C121.071 10.496 120.639 10.649 120.351 10.883C120.063 11.099 119.865 11.45 119.757 11.936C119.667 12.422 119.622 13.106 119.622 13.988V29.054C119.406 29.036 119.181 29.027 118.947 29.027C118.731 29.027 118.497 29.036 118.245 29.054L106.527 14.204V24.572C106.527 25.562 106.581 26.327 106.689 26.867C106.797 27.389 107.031 27.767 107.391 28.001C107.769 28.217 108.354 28.37 109.146 28.46V29C108.804 28.964 108.354 28.946 107.796 28.946C107.238 28.928 106.716 28.919 106.23 28.919C105.816 28.919 105.393 28.928 104.961 28.946C104.529 28.946 104.169 28.964 103.881 29V28.46C104.457 28.37 104.889 28.217 105.177 28.001C105.465 27.785 105.654 27.434 105.744 26.948C105.852 26.444 105.906 25.76 105.906 24.896V12.746C105.906 12.08 105.852 11.594 105.744 11.288C105.654 10.964 105.456 10.748 105.15 10.64C104.862 10.514 104.439 10.442 103.881 10.424V9.884C104.169 9.902 104.529 9.92 104.961 9.938C105.393 9.956 105.816 9.965 106.23 9.965C106.662 9.965 107.076 9.956 107.472 9.938C107.868 9.92 108.228 9.902 108.552 9.884L119.001 22.763V14.312C119.001 13.322 118.947 12.566 118.839 12.044C118.731 11.504 118.488 11.117 118.11 10.883C117.75 10.649 117.174 10.496 116.382 10.424V9.884C116.724 9.902 117.174 9.92 117.732 9.938C118.29 9.956 118.812 9.965 119.298 9.965C119.73 9.965 120.153 9.956 120.567 9.938C120.999 9.92 121.359 9.902 121.647 9.884ZM129.986 9.506C131.894 9.506 133.559 9.893 134.981 10.667C136.421 11.441 137.537 12.557 138.329 14.015C139.121 15.455 139.517 17.21 139.517 19.28C139.517 21.296 139.112 23.06 138.302 24.572C137.492 26.084 136.358 27.263 134.9 28.109C133.46 28.955 131.813 29.378 129.959 29.378C128.051 29.378 126.377 28.991 124.937 28.217C123.515 27.443 122.408 26.327 121.616 24.869C120.824 23.411 120.428 21.656 120.428 19.604C120.428 17.588 120.833 15.824 121.643 14.312C122.471 12.8 123.596 11.621 125.018 10.775C126.458 9.929 128.114 9.506 129.986 9.506ZM129.878 9.992C128.87 9.992 127.988 10.397 127.232 11.207C126.494 12.017 125.918 13.133 125.504 14.555C125.108 15.977 124.91 17.624 124.91 19.496C124.91 21.404 125.135 23.069 125.585 24.491C126.053 25.895 126.674 26.984 127.448 27.758C128.24 28.514 129.113 28.892 130.067 28.892C131.075 28.892 131.948 28.487 132.686 27.677C133.442 26.867 134.018 25.751 134.414 24.329C134.828 22.889 135.035 21.242 135.035 19.388C135.035 17.462 134.801 15.797 134.333 14.393C133.883 12.989 133.262 11.909 132.47 11.153C131.696 10.379 130.832 9.992 129.878 9.992ZM165.177 9.884V10.424C164.601 10.442 164.169 10.514 163.881 10.64C163.593 10.748 163.395 10.964 163.287 11.288C163.197 11.594 163.152 12.08 163.152 12.746V26.138C163.152 26.786 163.197 27.272 163.287 27.596C163.395 27.92 163.593 28.136 163.881 28.244C164.169 28.352 164.601 28.424 165.177 28.46V29C164.673 28.964 164.034 28.946 163.26 28.946C162.504 28.928 161.73 28.919 160.938 28.919C160.074 28.919 159.264 28.928 158.508 28.946C157.752 28.946 157.14 28.964 156.672 29V28.46C157.284 28.424 157.743 28.352 158.049 28.244C158.373 28.136 158.589 27.92 158.697 27.596C158.805 27.272 158.859 26.786 158.859 26.138V11.531H159.048L152.352 29.027H151.92L144.63 11.639V24.572C144.63 25.562 144.684 26.327 144.792 26.867C144.9 27.389 145.134 27.767 145.494 28.001C145.872 28.217 146.457 28.37 147.249 28.46V29C146.907 28.964 146.457 28.946 145.899 28.946C145.341 28.928 144.819 28.919 144.333 28.919C143.919 28.919 143.496 28.928 143.064 28.946C142.632 28.946 142.272 28.964 141.984 29V28.46C142.56 28.37 142.992 28.217 143.28 28.001C143.568 27.785 143.757 27.434 143.847 26.948C143.955 26.444 144.009 25.76 144.009 24.896V12.746C144.009 12.08 143.955 11.594 143.847 11.288C143.757 10.964 143.559 10.748 143.253 10.64C142.965 10.514 142.542 10.442 141.984 10.424V9.884C142.272 9.902 142.632 9.92 143.064 9.938C143.496 9.956 143.919 9.965 144.333 9.965C145.107 9.965 145.863 9.956 146.601 9.938C147.357 9.92 148.023 9.902 148.599 9.884L154.269 23.573L153.594 24.194L159.021 9.965C159.327 9.965 159.642 9.965 159.966 9.965C160.29 9.965 160.614 9.965 160.938 9.965C161.73 9.965 162.504 9.956 163.26 9.938C164.034 9.92 164.673 9.902 165.177 9.884ZM181.208 9.884V10.424C180.632 10.496 180.191 10.649 179.885 10.883C179.597 11.099 179.408 11.45 179.318 11.936C179.228 12.422 179.183 13.106 179.183 13.988V21.143C179.183 22.313 179.102 23.384 178.94 24.356C178.778 25.328 178.49 26.165 178.076 26.867C177.608 27.641 176.924 28.253 176.024 28.703C175.124 29.153 173.981 29.378 172.595 29.378C171.767 29.378 170.921 29.279 170.057 29.081C169.193 28.901 168.419 28.55 167.735 28.028C167.159 27.542 166.718 26.993 166.412 26.381C166.106 25.769 165.899 25.049 165.791 24.221C165.683 23.375 165.629 22.376 165.629 21.224V12.746C165.629 12.08 165.575 11.594 165.467 11.288C165.377 10.964 165.188 10.748 164.9 10.64C164.612 10.514 164.18 10.442 163.604 10.424V9.884C164.054 9.902 164.657 9.92 165.413 9.938C166.187 9.956 166.988 9.965 167.816 9.965C168.644 9.965 169.436 9.956 170.192 9.938C170.966 9.92 171.605 9.902 172.109 9.884V10.424C171.497 10.442 171.029 10.514 170.705 10.64C170.399 10.748 170.192 10.964 170.084 11.288C169.976 11.594 169.922 12.08 169.922 12.746V22.925C169.922 23.825 169.976 24.626 170.084 25.328C170.21 26.012 170.408 26.588 170.678 27.056C170.966 27.506 171.353 27.848 171.839 28.082C172.325 28.316 172.928 28.433 173.648 28.433C174.908 28.433 175.889 28.136 176.591 27.542C177.311 26.948 177.815 26.129 178.103 25.085C178.409 24.023 178.562 22.808 178.562 21.44V14.312C178.562 13.322 178.499 12.566 178.373 12.044C178.247 11.504 177.995 11.117 177.617 10.883C177.257 10.649 176.699 10.496 175.943 10.424V9.884C176.285 9.902 176.735 9.92 177.293 9.938C177.851 9.956 178.373 9.965 178.859 9.965C179.291 9.965 179.714 9.956 180.128 9.938C180.56 9.92 180.92 9.902 181.208 9.884ZM179.654 9.884C180.104 9.902 180.707 9.92 181.463 9.938C182.237 9.956 183.002 9.965 183.758 9.965C184.622 9.965 185.459 9.956 186.269 9.938C187.079 9.92 187.655 9.911 187.997 9.911C189.671 9.911 191.057 10.1 192.155 10.478C193.271 10.838 194.099 11.369 194.639 12.071C195.197 12.773 195.476 13.619 195.476 14.609C195.476 15.221 195.35 15.842 195.098 16.472C194.846 17.084 194.414 17.66 193.802 18.2C193.208 18.722 192.389 19.145 191.345 19.469C190.301 19.775 188.987 19.928 187.403 19.928H184.811V19.388H187.133C188.195 19.388 188.996 19.19 189.536 18.794C190.094 18.38 190.472 17.84 190.67 17.174C190.886 16.49 190.994 15.734 190.994 14.906C190.994 13.484 190.742 12.386 190.238 11.612C189.734 10.82 188.87 10.424 187.646 10.424C186.944 10.424 186.485 10.577 186.269 10.883C186.071 11.189 185.972 11.81 185.972 12.746V26.138C185.972 26.786 186.017 27.272 186.107 27.596C186.215 27.92 186.413 28.136 186.701 28.244C186.989 28.352 187.421 28.424 187.997 28.46V29C187.511 28.964 186.899 28.946 186.161 28.946C185.423 28.928 184.676 28.919 183.92 28.919C183.056 28.919 182.237 28.928 181.463 28.946C180.707 28.946 180.104 28.964 179.654 29V28.46C180.23 28.424 180.662 28.352 180.95 28.244C181.238 28.136 181.427 27.92 181.517 27.596C181.625 27.272 181.679 26.786 181.679 26.138V12.746C181.679 12.08 181.625 11.594 181.517 11.288C181.427 10.964 181.229 10.748 180.923 10.64C180.635 10.514 180.212 10.442 179.654 10.424V9.884ZM184.757 19.469C185.531 19.487 186.197 19.523 186.755 19.577C187.331 19.631 187.835 19.685 188.267 19.739C188.699 19.775 189.086 19.802 189.428 19.82C191.066 19.964 192.272 20.315 193.046 20.873C193.838 21.431 194.351 22.268 194.585 23.384L195.206 26.165C195.368 26.885 195.539 27.389 195.719 27.677C195.899 27.965 196.16 28.109 196.502 28.109C196.736 28.091 196.925 28.037 197.069 27.947C197.231 27.839 197.402 27.686 197.582 27.488L197.96 27.812C197.474 28.37 196.952 28.766 196.394 29C195.836 29.252 195.161 29.378 194.369 29.378C193.397 29.378 192.596 29.171 191.966 28.757C191.336 28.343 190.922 27.578 190.724 26.462L190.238 23.762C190.112 23.006 189.959 22.349 189.779 21.791C189.599 21.215 189.347 20.765 189.023 20.441C188.717 20.099 188.285 19.928 187.727 19.928H184.811L184.757 19.469ZM203.722 9.884V10.424C203.146 10.442 202.705 10.514 202.399 10.64C202.111 10.748 201.922 10.964 201.832 11.288C201.742 11.594 201.697 12.08 201.697 12.746V26.138C201.697 26.786 201.742 27.272 201.832 27.596C201.94 27.92 202.138 28.136 202.426 28.244C202.714 28.352 203.146 28.424 203.722 28.46V29C203.236 28.964 202.624 28.946 201.886 28.946C201.148 28.928 200.401 28.919 199.645 28.919C198.763 28.919 197.944 28.928 197.188 28.946C196.45 28.946 195.847 28.964 195.379 29V28.46C195.955 28.424 196.387 28.352 196.675 28.244C196.963 28.136 197.152 27.92 197.242 27.596C197.35 27.272 197.404 26.786 197.404 26.138V12.746C197.404 12.08 197.35 11.594 197.242 11.288C197.152 10.964 196.954 10.748 196.648 10.64C196.36 10.514 195.937 10.442 195.379 10.424V9.884C195.847 9.902 196.45 9.92 197.188 9.938C197.944 9.956 198.763 9.965 199.645 9.965C200.401 9.965 201.148 9.956 201.886 9.938C202.624 9.92 203.236 9.902 203.722 9.884ZM212.15 9.506C213.338 9.506 214.31 9.686 215.066 10.046C215.84 10.388 216.524 10.793 217.118 11.261C217.478 11.531 217.748 11.567 217.928 11.369C218.126 11.153 218.261 10.658 218.333 9.884H218.954C218.918 10.586 218.891 11.441 218.873 12.449C218.855 13.439 218.846 14.762 218.846 16.418H218.225C218.135 15.59 218.018 14.888 217.874 14.312C217.73 13.718 217.532 13.196 217.28 12.746C217.028 12.296 216.668 11.891 216.2 11.531C215.75 11.081 215.228 10.748 214.634 10.532C214.04 10.316 213.419 10.208 212.771 10.208C211.799 10.208 210.971 10.469 210.287 10.991C209.603 11.495 209.045 12.188 208.613 13.07C208.199 13.952 207.893 14.951 207.695 16.067C207.497 17.165 207.398 18.308 207.398 19.496C207.398 20.702 207.497 21.863 207.695 22.979C207.911 24.077 208.235 25.058 208.667 25.922C209.117 26.786 209.693 27.47 210.395 27.974C211.097 28.478 211.925 28.73 212.879 28.73C213.473 28.73 214.067 28.622 214.661 28.406C215.273 28.172 215.795 27.839 216.227 27.407C216.929 26.867 217.406 26.201 217.658 25.409C217.91 24.599 218.099 23.528 218.225 22.196H218.846C218.846 23.906 218.855 25.292 218.873 26.354C218.891 27.398 218.918 28.28 218.954 29H218.333C218.261 28.226 218.135 27.74 217.955 27.542C217.793 27.344 217.514 27.371 217.118 27.623C216.452 28.091 215.741 28.505 214.985 28.865C214.247 29.207 213.293 29.378 212.123 29.378C210.215 29.378 208.541 28.991 207.101 28.217C205.679 27.443 204.572 26.327 203.78 24.869C202.988 23.411 202.592 21.656 202.592 19.604C202.592 17.588 202.997 15.824 203.807 14.312C204.635 12.8 205.76 11.621 207.182 10.775C208.622 9.929 210.278 9.506 212.15 9.506ZM214.067 3.782C214.445 3.566 214.85 3.512 215.282 3.62C215.732 3.71 216.056 3.962 216.254 4.376C216.434 4.718 216.452 5.078 216.308 5.456C216.182 5.834 215.912 6.14 215.498 6.374C215.102 6.59 214.661 6.761 214.175 6.887C213.689 6.995 213.104 7.139 212.42 7.319C211.736 7.499 210.89 7.778 209.882 8.156L209.693 7.832C210.557 7.13 211.223 6.518 211.691 5.996C212.177 5.474 212.591 5.033 212.933 4.673C213.275 4.295 213.653 3.998 214.067 3.782Z" fill="#333333"/>
</svg>
